<svg width="15" height="18" viewBox="0 0 15 18" fill="none" xmlns="http://www.w3.org/2000/svg">
<path d="M3.82643 4.97468C4.61246 3.92981 5.35432 2.97898 5.60272 1.80873C5.60272 1.80873 5.60272 1.80873 5.60272 1.78435C5.34772 1.51065 5.05547 1.27604 4.73501 1.08777C4.70392 1.06581 4.66773 1.0525 4.63009 1.04916C4.59245 1.04582 4.55459 1.05257 4.52027 1.06873C4.48594 1.08489 4.45638 1.10991 4.43437 1.14134C4.41235 1.17277 4.39868 1.20952 4.39474 1.24798C4.35797 1.46887 4.30906 1.68748 4.24836 1.90277C4.14191 2.25998 3.97618 2.59576 3.75839 2.89539C3.35007 3.45614 2.84647 3.96116 2.39731 4.49404C1.32885 5.7653 0.508823 7.33608 0.719792 9.0636C0.782044 9.57966 0.937866 10.0793 1.17919 10.5369C1.43959 8.92389 2.06792 7.39652 3.01322 6.07876C3.27182 5.7026 3.55421 5.33342 3.82643 4.97468Z" fill="white"/>
<path d="M13.3439 5.6016C13.335 5.59867 13.3255 5.59867 13.3166 5.6016C13.3187 5.83663 13.2901 6.0709 13.2315 6.29818C13.1595 6.51446 13.0435 6.71268 12.8913 6.87982C12.7641 7.03099 12.6078 7.15359 12.4321 7.2399C12.2564 7.32622 12.0652 7.37438 11.8705 7.38136C11.5654 7.37813 11.2714 7.26464 11.0402 7.06093C10.3359 6.46187 10.1963 5.4379 9.99216 4.58111C9.78404 3.71828 9.38364 2.91649 8.82222 2.23852C8.26081 1.56055 7.55364 1.02483 6.75617 0.673306C6.72319 0.657349 6.68715 0.649025 6.65067 0.648926C6.58437 0.648832 6.5206 0.674799 6.47247 0.721466C6.42435 0.768132 6.39555 0.831934 6.39206 0.899695C6.36597 1.25744 6.31941 1.6133 6.25258 1.96546C5.87828 3.74173 4.55124 5.05478 3.55765 6.49322C2.42114 8.14759 1.62488 10.1677 1.82905 12.2226C2.08085 14.7616 3.83663 16.618 5.98375 17.4469C5.58454 17.1506 5.25111 16.7712 5.00538 16.3336C4.75966 15.896 4.60721 15.4101 4.55803 14.9079C4.49353 13.6986 4.84507 12.5044 5.5516 11.533C6.11645 10.6866 6.88208 9.91342 7.09985 8.86855C7.13882 8.66148 7.16496 8.45209 7.1781 8.24163C7.17875 8.2164 7.18551 8.19172 7.19771 8.16978C7.20991 8.14785 7.22718 8.12934 7.24805 8.1159C7.26893 8.10246 7.29274 8.0945 7.31734 8.09274C7.34194 8.09098 7.36661 8.09546 7.38911 8.1058C7.84882 8.319 8.25447 8.63748 8.57483 9.03665C8.89519 9.43582 9.12169 9.90501 9.23676 10.408C9.35246 10.9095 9.43413 11.5156 9.83905 11.8673C10.3971 12.3514 11.1354 11.8325 11.1388 11.1324V11.0593L11.1695 11.014C11.2451 11.1368 11.3122 11.2648 11.3703 11.3971V11.4145C11.708 12.1485 11.8985 12.9442 11.9306 13.7548C11.9628 14.5654 11.8359 15.3743 11.5574 16.1339C11.4268 16.4618 11.2478 16.7672 11.0266 17.0394C10.8361 17.2712 10.6163 17.4762 10.3732 17.6489C11.4323 17.3285 12.3779 16.7006 13.0954 15.8413C13.48 15.3797 13.7933 14.8605 14.0244 14.3019C14.2288 13.8041 14.386 13.2875 14.4939 12.7589C14.6022 12.2245 14.6649 11.6815 14.6811 11.1359C14.6986 10.5868 14.6736 10.0371 14.6063 9.49199C14.5403 8.94913 14.4333 8.41232 14.2863 7.88638C14.1428 7.36809 13.9585 6.86258 13.7351 6.3748C13.6739 6.24593 13.6092 6.1101 13.5446 5.98124L13.4391 5.77574C13.4202 5.71126 13.3877 5.65181 13.3439 5.6016Z" fill="white"/>
</svg>
