<svg width="14" height="14" viewBox="0 0 14 14" fill="none" xmlns="http://www.w3.org/2000/svg">
<g clip-path="url(#clip0_82_139)">
<path d="M10.224 1.68701C9.61403 1.6965 9.01739 1.86677 8.49431 2.18062C7.97122 2.49447 7.54021 2.94079 7.24481 3.47451C6.94941 2.94079 6.5184 2.49447 5.99531 2.18062C5.47223 1.86677 4.87559 1.6965 4.26564 1.68701C3.29332 1.72926 2.37723 2.15461 1.71753 2.87014C1.05782 3.58567 0.708112 4.53321 0.74481 5.50576C0.74481 7.96872 3.33723 10.6586 5.51148 12.4824C5.99693 12.8904 6.61071 13.114 7.24481 13.114C7.87891 13.114 8.49269 12.8904 8.97814 12.4824C11.1524 10.6586 13.7448 7.96872 13.7448 5.50576C13.7815 4.53321 13.4318 3.58567 12.7721 2.87014C12.1124 2.15461 11.1963 1.72926 10.224 1.68701Z" fill="#43B546"/>
</g>
<defs>
<clipPath id="clip0_82_139">
<rect width="13" height="13" fill="white" transform="translate(0.744812 0.648926)"/>
</clipPath>
</defs>
</svg>
