<svg width="24" height="25" viewBox="0 0 24 25" fill="none" xmlns="http://www.w3.org/2000/svg">
<g clip-path="url(#clip0_57_105)">
<path d="M4.06805 18.7814H19.724C20.2059 18.7814 20.6806 18.6653 21.1081 18.4431C21.5356 18.2208 21.9033 17.8988 22.18 17.5043C22.4567 17.1099 22.6344 16.6546 22.6979 16.177C22.7615 15.6993 22.709 15.2134 22.545 14.7604L19.693 6.87537C19.206 5.12308 18.1583 3.57856 16.7104 2.47804C15.2624 1.37752 13.4938 0.781584 11.675 0.781372V0.781372C9.78177 0.781342 7.9451 1.42696 6.46826 2.61163C4.99142 3.7963 3.96274 5.44918 3.55205 7.29737L1.20205 14.8974C1.06369 15.3461 1.03258 15.821 1.11124 16.2839C1.18989 16.7468 1.37611 17.1848 1.6549 17.5626C1.93369 17.9404 2.29728 18.2476 2.71641 18.4592C3.13554 18.6709 3.5985 18.7812 4.06805 18.7814Z" fill="white"/>
<path d="M7.09985 20.7814C7.32937 21.9117 7.94258 22.9279 8.8356 23.6578C9.72861 24.3877 10.8465 24.7864 11.9999 24.7864C13.1532 24.7864 14.2711 24.3877 15.1641 23.6578C16.0571 22.9279 16.6703 21.9117 16.8999 20.7814H7.09985Z" fill="white"/>
</g>
<defs>
<clipPath id="clip0_57_105">
<rect width="24" height="24" fill="white" transform="translate(0 0.781372)"/>
</clipPath>
</defs>
</svg>
