<svg width="22" height="19" viewBox="0 0 22 19" fill="none" xmlns="http://www.w3.org/2000/svg">
<path d="M3.06805 18.7814H18.724C19.2059 18.7814 19.6806 18.6653 20.1081 18.4431C20.5356 18.2208 20.9033 17.8988 21.18 17.5043C21.4567 17.1099 21.6344 16.6546 21.6979 16.177C21.7615 15.6993 21.709 15.2134 21.545 14.7604L18.693 6.87537C18.206 5.12308 17.1583 3.57856 15.7104 2.47804C14.2624 1.37752 12.4938 0.781584 10.675 0.781372V0.781372C8.78177 0.781342 6.9451 1.42696 5.46826 2.61163C3.99142 3.7963 2.96274 5.44918 2.55205 7.29737L0.202048 14.8974C0.0636874 15.3461 0.0325827 15.821 0.111236 16.2839C0.18989 16.7468 0.376105 17.1848 0.654899 17.5626C0.933694 17.9404 1.29728 18.2476 1.71641 18.4592C2.13554 18.6709 2.5985 18.7812 3.06805 18.7814Z" fill="white"/>
</svg>
