<svg width="24" height="24" viewBox="0 0 24 24" fill="none" xmlns="http://www.w3.org/2000/svg">
<rect width="24" height="24" rx="12" fill="#006FFD"/>
<mask id="mask0_85_148" style="mask-type:alpha" maskUnits="userSpaceOnUse" x="7" y="7" width="10" height="10">
<path d="M10.3923 15.587L14.559 11.4202L12.5799 9.44106L8.41312 13.6078C8.35576 13.6653 8.31501 13.7371 8.2952 13.8159L7.83337 16.1667L10.1838 15.7049C10.2627 15.6852 10.3349 15.6443 10.3923 15.587ZM15.9042 10.0751C16.0723 9.9069 16.1667 9.67885 16.1667 9.44106C16.1667 9.20327 16.0723 8.97522 15.9042 8.80706L15.193 8.09593C15.0249 7.92782 14.7968 7.83337 14.559 7.83337C14.3212 7.83337 14.0932 7.92782 13.925 8.09593L13.2139 8.80706L15.193 10.7862L15.9042 10.0751Z" fill="#006FFD"/>
</mask>
<g mask="url(#mask0_85_148)">
<rect x="7" y="7" width="10" height="10" fill="white"/>
</g>
</svg>
