<svg width="21" height="21" viewBox="0 0 21 21" fill="none" xmlns="http://www.w3.org/2000/svg">
<mask id="mask0_36_735" style="mask-type:alpha" maskUnits="userSpaceOnUse" x="1" y="0" width="18" height="21">
<path d="M15.1136 5.47474C15.1136 8.2361 12.8751 10.4746 10.1138 10.4746C7.35247 10.4746 5.11398 8.2361 5.11398 5.47474C5.11398 2.71338 7.35247 0.474854 10.1138 0.474854C12.8751 0.474854 15.1136 2.71338 15.1136 5.47474Z" fill="#006FFD"/>
<path d="M1.78073 17.1416C1.78073 14.3802 4.01922 12.1417 6.78054 12.1417H13.4469C16.2083 12.1417 18.4467 14.3802 18.4467 17.1416V17.9749C18.4467 19.3556 17.3275 20.4748 15.9468 20.4748H4.28063C2.89998 20.4748 1.78073 19.3556 1.78073 17.9749V17.1416Z" fill="#006FFD"/>
</mask>
<g mask="url(#mask0_36_735)">
<rect x="0.114227" y="0.473633" width="19.9992" height="19.9995" fill="#43B546"/>
</g>
</svg>
