<svg width="13" height="14" viewBox="0 0 13 14" fill="none" xmlns="http://www.w3.org/2000/svg">
<path d="M12.8058 7.74483C12.8058 8.00854 12.701 8.26147 12.5145 8.44794C12.328 8.63441 12.0752 8.73915 11.8114 8.73915C11.759 8.73787 11.7067 8.73291 11.6549 8.72425H11.6051C10.7802 8.58097 10.0135 8.20491 9.39526 7.64042L10.3274 5.68161C10.5078 5.96901 10.7475 6.21461 11.0304 6.40195C11.3134 6.58928 11.6331 6.71403 11.9681 6.7679C12.2025 6.80516 12.4159 6.92511 12.5696 7.10599C12.7211 7.2845 12.8047 7.51072 12.8058 7.74483Z" fill="white"/>
<path d="M5.74366 10.2132C5.48082 10.4179 5.19456 10.5906 4.89099 10.7278C4.24324 11.0116 3.54244 11.154 2.83529 11.1454C2.2463 11.1471 1.66019 11.0634 1.09523 10.8968C0.846665 10.8153 0.640216 10.6392 0.520634 10.4065C0.401052 10.1739 0.377953 9.90349 0.456365 9.65394C0.509271 9.492 0.602888 9.34638 0.728249 9.23103C0.85361 9.11568 1.00648 9.03447 1.17225 8.99519C1.5998 8.89328 2.01246 9.11203 2.43007 9.15926C2.87721 9.20889 3.3298 9.16659 3.76 9.03497C4.03012 8.95581 4.28305 8.82681 4.50574 8.65464C4.56631 8.85178 4.64974 9.04116 4.75432 9.21892C5.00038 9.62429 5.33953 9.96515 5.74366 10.2132Z" fill="white"/>
<path d="M12.4478 13.6362C12.4478 13.7351 12.4085 13.8299 12.3386 13.8998C12.2686 13.9698 12.1738 14.009 12.0749 14.009H4.12038C4.02149 14.009 3.92661 13.9698 3.85669 13.8998C3.78676 13.8299 3.74751 13.7351 3.74751 13.6362C3.74751 13.5373 3.78676 13.4425 3.85669 13.3725C3.92661 13.3026 4.02149 13.2633 4.12038 13.2633H9.09197C9.14914 13.2633 9.16904 13.2484 9.16407 13.1838C9.14658 12.8113 9.10674 12.4403 9.04475 12.0726C8.96261 11.6397 8.80436 11.2248 8.57739 10.8471C8.45171 10.6432 8.29957 10.4568 8.12496 10.2928C8.06779 10.2406 8.00565 10.1884 7.94102 10.1362C7.7023 9.94954 7.43205 9.80727 7.14308 9.71609C6.52412 9.50728 5.96733 9.30842 5.61434 8.72177C5.48464 8.50437 5.40193 8.26219 5.37153 8.01087C5.34113 7.75955 5.36373 7.50466 5.43786 7.26261C5.52238 7.04386 5.64916 6.83006 5.75107 6.61877L6.58378 4.85883C6.60615 4.8116 6.73792 4.42878 6.79261 4.41635C6.58901 4.4556 6.38875 4.51046 6.19355 4.58042C5.50949 4.83766 4.88271 5.22705 4.34905 5.72637C4.2521 5.81387 4.13886 5.88143 4.01581 5.92516C3.89276 5.96889 3.76232 5.98793 3.6319 5.98123C3.50148 5.97454 3.37362 5.94224 3.25569 5.88614C3.13776 5.83003 3.03208 5.75124 2.9446 5.65428C2.8571 5.55733 2.78952 5.44412 2.74579 5.32107C2.70205 5.19801 2.68302 5.06754 2.68971 4.93712C2.6964 4.8067 2.72871 4.67887 2.78481 4.56094C2.84091 4.44302 2.91973 4.3373 3.0167 4.24983C3.74237 3.57745 4.59276 3.05383 5.51985 2.70861C6.17799 2.46898 6.87272 2.34535 7.57312 2.34321C7.92447 2.34257 8.27501 2.37672 8.61963 2.44513C8.71154 2.45189 8.802 2.47198 8.88812 2.50479C9.00512 2.52199 9.11955 2.55373 9.2287 2.59925C9.59359 2.75189 9.8829 3.04323 10.033 3.40917C10.1831 3.77511 10.1817 4.18569 10.0291 4.5506L9.95453 4.72957L8.35618 8.08788C8.45064 8.13263 8.54756 8.17984 8.63954 8.22956C8.73151 8.27927 8.88811 8.38121 9.00245 8.46324C9.3638 8.7195 9.6869 9.02584 9.962 9.37305C10.5182 10.106 10.8845 10.965 11.0284 11.8737C11.1268 12.3352 11.1486 12.8097 11.093 13.2782C11.4187 13.2782 11.7443 13.2782 12.07 13.2782C12.1672 13.2768 12.2611 13.3135 12.3316 13.3804C12.4022 13.4472 12.4439 13.539 12.4478 13.6362Z" fill="white"/>
<path d="M2.31074 13.2633H1.41334C1.31445 13.2633 1.21963 13.3026 1.14971 13.3725C1.07978 13.4425 1.04047 13.5373 1.04047 13.6362C1.04047 13.735 1.07978 13.8299 1.14971 13.8998C1.21963 13.9697 1.31445 14.009 1.41334 14.009H2.31074C2.40963 14.009 2.50444 13.9697 2.57437 13.8998C2.64429 13.8299 2.68361 13.735 2.68361 13.6362C2.68361 13.5373 2.64429 13.4425 2.57437 13.3725C2.50444 13.3026 2.40963 13.2633 2.31074 13.2633Z" fill="white"/>
<path d="M10.1335 2.38048C10.7884 2.38048 11.3193 1.84962 11.3193 1.19476C11.3193 0.5399 10.7884 0.0090332 10.1335 0.0090332C9.47868 0.0090332 8.94781 0.5399 8.94781 1.19476C8.94781 1.84962 9.47868 2.38048 10.1335 2.38048Z" fill="white"/>
</svg>
