<svg width="23" height="22" viewBox="0 0 23 22" fill="none" xmlns="http://www.w3.org/2000/svg">
<mask id="mask0_85_160" style="mask-type:alpha" maskUnits="userSpaceOnUse" x="1" y="0" width="21" height="22">
<circle cx="11.7819" cy="11" r="10.0833" fill="#D9D9D9"/>
</mask>
<g mask="url(#mask0_85_160)">
<rect x="0.781982" width="22" height="22" fill="#F04D4D"/>
</g>
<path d="M11.2757 5.55508C11.4354 5.48472 11.6081 5.44846 11.7827 5.44861C11.9571 5.44865 12.1297 5.48505 12.2893 5.55549C12.4489 5.62593 12.592 5.72886 12.7096 5.85772C12.8273 5.98658 12.9167 6.13853 12.9723 6.30389C13.0279 6.46925 13.0484 6.64438 13.0326 6.81811L12.5321 12.3264C12.5126 12.5115 12.4253 12.683 12.2869 12.8076C12.1485 12.9322 11.9689 13.0011 11.7827 13.0011C11.5965 13.0011 11.4169 12.9322 11.2785 12.8076C11.1401 12.683 11.0528 12.5115 11.0333 12.3264L10.5314 6.81811C10.5156 6.64426 10.5361 6.46902 10.5918 6.30356C10.6475 6.13811 10.7371 5.98609 10.8548 5.85721C10.9726 5.72834 11.1159 5.62543 11.2757 5.55508Z" fill="white"/>
<path d="M12.9822 15.3521C12.9822 16.0145 12.4452 16.5515 11.7827 16.5515C11.1203 16.5515 10.5833 16.0145 10.5833 15.3521C10.5833 14.6896 11.1203 14.1526 11.7827 14.1526C12.4452 14.1526 12.9822 14.6896 12.9822 15.3521Z" fill="white"/>
</svg>
