<svg width="21" height="21" viewBox="0 0 21 21" fill="none" xmlns="http://www.w3.org/2000/svg">
<g clip-path="url(#clip0_52_303)">
<path d="M10.1793 0.474854C12.1571 0.474854 14.0905 1.06134 15.735 2.16016C17.3795 3.25897 18.6612 4.82076 19.4181 6.64802C20.1749 8.47528 20.373 10.4859 19.9871 12.4258C19.6013 14.3656 18.6489 16.1474 17.2503 17.5459C15.8518 18.9444 14.07 19.8969 12.1302 20.2827C10.1904 20.6686 8.1797 20.4705 6.35244 19.7136C4.52518 18.9568 2.96339 17.675 1.86458 16.0306C0.765762 14.3861 0.179272 12.4527 0.179272 10.4749C0.182138 7.82357 1.23663 5.2817 3.11137 3.40695C4.98611 1.53221 7.52799 0.477721 10.1793 0.474854V0.474854ZM9.34594 10.374C9.34585 10.5153 9.38167 10.6542 9.45004 10.7779C9.5184 10.9015 9.61707 11.0057 9.73677 11.0807L12.9368 13.0807C13.0298 13.1388 13.1333 13.178 13.2415 13.1961C13.3497 13.2142 13.4604 13.2108 13.5672 13.1861C13.6741 13.1614 13.7751 13.1159 13.8643 13.0522C13.9536 12.9885 14.0295 12.9079 14.0876 12.8149C14.1457 12.7218 14.1849 12.6183 14.203 12.5101C14.2211 12.4019 14.2177 12.2912 14.193 12.1844C14.1683 12.0775 14.1229 11.9766 14.0592 11.8873C13.9955 11.798 13.9148 11.7221 13.8218 11.664L11.0126 9.91235V6.30819C11.0126 6.08717 10.9248 5.87521 10.7685 5.71893C10.6122 5.56265 10.4003 5.47485 10.1793 5.47485C9.95826 5.47485 9.7463 5.56265 9.59002 5.71893C9.43373 5.87521 9.34594 6.08717 9.34594 6.30819V10.374Z" fill="#43B546"/>
</g>
<defs>
<clipPath id="clip0_52_303">
<rect width="20" height="20" fill="white" transform="matrix(-1 0 0 1 20.1793 0.474854)"/>
</clipPath>
</defs>
</svg>
