<svg width="63" height="62" viewBox="0 0 63 62" fill="none" xmlns="http://www.w3.org/2000/svg">
<mask id="mask0_85_141" style="mask-type:alpha" maskUnits="userSpaceOnUse" x="5" y="0" width="53" height="62">
<path d="M47.2496 15.5032C47.2496 23.9253 40.1984 30.7528 31.5002 30.7528C22.8021 30.7528 15.7508 23.9253 15.7508 15.5032C15.7508 7.08104 22.8021 0.25354 31.5002 0.25354C40.1984 0.25354 47.2496 7.08104 47.2496 15.5032Z" fill="#006FFD"/>
<path d="M5.2511 51.0871C5.2511 42.6649 12.3023 35.8374 21.0005 35.8374H41.9997C50.6978 35.8374 57.749 42.6649 57.749 51.0871V53.6287C57.749 57.8398 54.2234 61.2535 49.8744 61.2535H13.1258C8.77672 61.2535 5.2511 57.8398 5.2511 53.6287V51.0871Z" fill="#006FFD"/>
</mask>
<g mask="url(#mask0_85_141)">
<rect x="0.0012207" y="0.250732" width="62.9975" height="60.9986" fill="#717171"/>
</g>
</svg>
