<svg width="21" height="21" viewBox="0 0 21 21" fill="none" xmlns="http://www.w3.org/2000/svg">
<g clip-path="url(#clip0_52_294)">
<path d="M19.7482 3.87235C19.5138 3.59105 19.2204 3.36481 18.8887 3.2097C18.557 3.05459 18.1952 2.97441 17.8291 2.97485H4.35574L4.32074 2.68235C4.24911 2.07437 3.95689 1.5138 3.49948 1.10692C3.04207 0.70004 2.45126 0.475138 1.83907 0.474854L1.65407 0.474854C1.43306 0.474854 1.2211 0.562651 1.06482 0.718931C0.908537 0.875212 0.82074 1.08717 0.82074 1.30819C0.82074 1.5292 0.908537 1.74116 1.06482 1.89744C1.2211 2.05372 1.43306 2.14152 1.65407 2.14152H1.83907C2.04318 2.14155 2.24019 2.21648 2.39272 2.35212C2.54525 2.48775 2.64269 2.67464 2.66657 2.87735L3.81324 12.6274C3.93228 13.6413 4.41947 14.5763 5.18233 15.2549C5.94519 15.9334 6.93062 16.3082 7.95157 16.3082H16.6541C16.8751 16.3082 17.087 16.2204 17.2433 16.0641C17.3996 15.9078 17.4874 15.6959 17.4874 15.4749C17.4874 15.2538 17.3996 15.0419 17.2433 14.8856C17.087 14.7293 16.8751 14.6415 16.6541 14.6415H7.95157C7.43579 14.6401 6.93307 14.4791 6.51235 14.1807C6.09163 13.8824 5.7735 13.4611 5.60157 12.9749H15.5349C16.5118 12.9749 17.4577 12.6317 18.2073 12.0052C18.9568 11.3787 19.4624 10.5088 19.6357 9.54735L20.2899 5.91902C20.3552 5.55903 20.3405 5.18908 20.2469 4.83538C20.1533 4.48169 19.9831 4.15292 19.7482 3.87235Z" fill="#43B546"/>
<path d="M6.654 20.4754C7.57447 20.4754 8.32066 19.7292 8.32066 18.8088C8.32066 17.8883 7.57447 17.1421 6.654 17.1421C5.73353 17.1421 4.98734 17.8883 4.98734 18.8088C4.98734 19.7292 5.73353 20.4754 6.654 20.4754Z" fill="#43B546"/>
<path d="M14.9874 20.4754C15.9079 20.4754 16.6541 19.7292 16.6541 18.8088C16.6541 17.8883 15.9079 17.1421 14.9874 17.1421C14.0669 17.1421 13.3207 17.8883 13.3207 18.8088C13.3207 19.7292 14.0669 20.4754 14.9874 20.4754Z" fill="#43B546"/>
</g>
<defs>
<clipPath id="clip0_52_294">
<rect width="20" height="20" fill="white" transform="translate(0.82074 0.474854)"/>
</clipPath>
</defs>
</svg>
