<svg width="21" height="21" viewBox="0 0 21 21" fill="none" xmlns="http://www.w3.org/2000/svg">
<g clip-path="url(#clip0_52_308)">
<path d="M0.763908 16.3083C0.765232 17.413 1.20464 18.4721 1.98576 19.2532C2.76687 20.0343 3.82591 20.4737 4.93057 20.475H16.5972C17.7019 20.4737 18.7609 20.0343 19.5421 19.2532C20.3232 18.4721 20.7626 17.413 20.7639 16.3083V8.80835H0.763908V16.3083ZM14.9306 12.5583C15.1778 12.5583 15.4195 12.6317 15.625 12.769C15.8306 12.9064 15.9908 13.1016 16.0854 13.33C16.18 13.5584 16.2048 13.8097 16.1566 14.0522C16.1083 14.2947 15.9893 14.5174 15.8145 14.6922C15.6396 14.867 15.4169 14.9861 15.1744 15.0343C14.932 15.0826 14.6806 15.0578 14.4522 14.9632C14.2238 14.8686 14.0286 14.7084 13.8912 14.5028C13.7539 14.2973 13.6806 14.0556 13.6806 13.8083C13.6806 13.4768 13.8123 13.1589 14.0467 12.9245C14.2811 12.69 14.5991 12.5583 14.9306 12.5583ZM10.7639 12.5583C11.0111 12.5583 11.2528 12.6317 11.4584 12.769C11.6639 12.9064 11.8241 13.1016 11.9188 13.33C12.0134 13.5584 12.0381 13.8097 11.9899 14.0522C11.9417 14.2947 11.8226 14.5174 11.6478 14.6922C11.473 14.867 11.2502 14.9861 11.0078 15.0343C10.7653 15.0826 10.514 15.0578 10.2856 14.9632C10.0571 14.8686 9.86192 14.7084 9.72457 14.5028C9.58722 14.2973 9.51391 14.0556 9.51391 13.8083C9.51391 13.4768 9.6456 13.1589 9.88002 12.9245C10.1144 12.69 10.4324 12.5583 10.7639 12.5583ZM6.59724 12.5583C6.84447 12.5583 7.08614 12.6317 7.2917 12.769C7.49727 12.9064 7.65748 13.1016 7.75209 13.33C7.8467 13.5584 7.87145 13.8097 7.82322 14.0522C7.77499 14.2947 7.65594 14.5174 7.48113 14.6922C7.30631 14.867 7.08358 14.9861 6.8411 15.0343C6.59863 15.0826 6.34729 15.0578 6.11889 14.9632C5.89048 14.8686 5.69526 14.7084 5.5579 14.5028C5.42055 14.2973 5.34724 14.0556 5.34724 13.8083C5.34724 13.4768 5.47894 13.1589 5.71336 12.9245C5.94778 12.69 6.26572 12.5583 6.59724 12.5583V12.5583Z" fill="#676D75"/>
<path d="M16.5972 2.14152H15.7639V1.30819C15.7639 1.08717 15.6761 0.875212 15.5198 0.718931C15.3636 0.562651 15.1516 0.474854 14.9306 0.474854C14.7096 0.474854 14.4976 0.562651 14.3413 0.718931C14.185 0.875212 14.0972 1.08717 14.0972 1.30819V2.14152H7.43058V1.30819C7.43058 1.08717 7.34278 0.875212 7.1865 0.718931C7.03022 0.562651 6.81826 0.474854 6.59725 0.474854C6.37624 0.474854 6.16427 0.562651 6.00799 0.718931C5.85171 0.875212 5.76392 1.08717 5.76392 1.30819V2.14152H4.93058C3.82592 2.14284 2.76688 2.58226 1.98577 3.36337C1.20465 4.14448 0.765239 5.20352 0.763916 6.30819L0.763916 7.14152H20.7639V6.30819C20.7626 5.20352 20.3232 4.14448 19.5421 3.36337C18.761 2.58226 17.7019 2.14284 16.5972 2.14152V2.14152Z" fill="#676D75"/>
</g>
<defs>
<clipPath id="clip0_52_308">
<rect width="20" height="20" fill="white" transform="translate(0.763916 0.474854)"/>
</clipPath>
</defs>
</svg>
