<svg width="13" height="13" viewBox="0 0 13 13" fill="none" xmlns="http://www.w3.org/2000/svg">
<g clip-path="url(#clip0_82_140)">
<path d="M6.68652 3.47705C6.2887 3.47705 5.90717 3.63509 5.62586 3.91639C5.34456 4.1977 5.18652 4.57923 5.18652 4.97705V10.9771C5.18652 11.3749 5.34456 11.7564 5.62586 12.0377C5.90717 12.319 6.2887 12.4771 6.68652 12.4771C7.08435 12.4771 7.46588 12.319 7.74718 12.0377C8.02849 11.7564 8.18652 11.3749 8.18652 10.9771V4.97705C8.18652 4.57923 8.02849 4.1977 7.74718 3.91639C7.46588 3.63509 7.08435 3.47705 6.68652 3.47705Z" fill="white"/>
<path d="M11.1865 0.477051C10.7887 0.477051 10.4072 0.635086 10.1259 0.916391C9.84456 1.1977 9.68652 1.57923 9.68652 1.97705V10.9771C9.68652 11.3749 9.84456 11.7564 10.1259 12.0377C10.4072 12.319 10.7887 12.4771 11.1865 12.4771C11.5843 12.4771 11.9659 12.319 12.2472 12.0377C12.5285 11.7564 12.6865 11.3749 12.6865 10.9771V1.97705C12.6865 1.57923 12.5285 1.1977 12.2472 0.916391C11.9659 0.635086 11.5843 0.477051 11.1865 0.477051V0.477051Z" fill="white"/>
<path d="M2.18652 6.47705C1.7887 6.47705 1.40717 6.63509 1.12586 6.91639C0.844559 7.1977 0.686523 7.57923 0.686523 7.97705L0.686523 10.9771C0.686523 11.3749 0.844559 11.7564 1.12586 12.0377C1.40717 12.319 1.7887 12.4771 2.18652 12.4771C2.58435 12.4771 2.96588 12.319 3.24718 12.0377C3.52849 11.7564 3.68652 11.3749 3.68652 10.9771V7.97705C3.68652 7.57923 3.52849 7.1977 3.24718 6.91639C2.96588 6.63509 2.58435 6.47705 2.18652 6.47705Z" fill="white"/>
</g>
<defs>
<clipPath id="clip0_82_140">
<rect width="12" height="12" fill="white" transform="translate(0.686523 0.477051)"/>
</clipPath>
</defs>
</svg>
