<svg width="19" height="19" viewBox="0 0 19 19" fill="none" xmlns="http://www.w3.org/2000/svg">
<path fill-rule="evenodd" clip-rule="evenodd" d="M15.5 18.3875H12.3C12.134 18.3875 12 18.2534 12 18.0874V13.8875C12 12.5065 10.881 11.3875 9.5 11.3875C8.119 11.3875 7 12.5065 7 13.8875V18.0874C7 18.2534 6.86595 18.3875 6.69995 18.3875H3.5C1.5 18.3875 0.5 17.3875 0.5 15.3875V9.03847C0.5 7.04047 1.02305 6.73353 1.93005 5.97353L7.89404 0.972434C8.82304 0.193434 10.1781 0.193434 11.1071 0.972434L17.071 5.97353C17.977 6.73353 18.501 7.04047 18.501 9.03847V15.3875C18.5 17.3875 17.5 18.3875 15.5 18.3875Z" fill="#676D75"/>
</svg>
